<?xml version="1.0" encoding="utf-8"?>
<!-- Generator: Adobe Illustrator 23.0.1, SVG Export Plug-In . SVG Version: 6.00 Build 0)  -->
<svg version="1.1" id="Calque_1" xmlns="http://www.w3.org/2000/svg" xmlns:xlink="http://www.w3.org/1999/xlink" x="0px" y="0px"
	 viewBox="0 0 1920 1080" style="enable-background:new 0 0 1920 1080;" xml:space="preserve">
<style type="text/css">
	.st0{fill:#FFFFFF;}
	.st1{fill:#FFC107;}
	.st2{fill:none;stroke:#000000;stroke-width:0.5;stroke-linecap:round;stroke-linejoin:round;}
	.st3{fill:#3F3F3F;}
</style>
<g>
	<path d="M960.7,352.5c0.2,0,0.3,0,0.5,0c83.9,0.7,157,62.1,170.9,144.6c7.4,44.1-0.6,85.4-24.7,122.8
		c-33.2,51.6-80.2,85.9-137.7,106.3c-6.1,2.2-11.9,2-18,0.2c-33.1-10.2-61.6-28.2-87.6-50.5c-29.8-25.5-53.5-55.6-66.9-93
		c-34.4-96,24.7-202.7,124.5-224.7C934.4,355.4,947.6,353.4,960.7,352.5z M1114.9,527.1c-0.9-8.8-1.4-17.6-2.9-26.3
		c-4.1-22.9-14-42.7-33.2-56.7c-19-13.9-40.6-17.8-63.5-14.9c-20.3,2.6-38.4,9.5-50.1,28c-2.7,4.2-5.7,4.1-8.5-0.3
		c-5-7.7-11.2-14-19.4-18.3c-15.9-8.6-33-11.3-50.7-9.8c-33.6,2.8-58,19.5-70.3,50.9c-14.4,36.7-11.4,73.5,5.5,108.6
		c27,56.1,71.9,93,129.1,116c8.1,3.3,15.4,2.5,23-0.6c41.2-16.3,75.5-42,103.1-76.5C1100.3,598,1114.1,565.1,1114.9,527.1z
		 M962.8,373.8c-25.8,0.1-48.7,5.4-70.1,16.3c-8,4.1-15.4,9.3-22.9,14.2c-1.2,0.8-1.6,2.8-2.4,4.3c1.6,0.4,3.3,1,4.9,1.3
		c0.6,0.1,1.3-0.3,1.9-0.4c29.8-3.8,58.2-0.4,83.2,17.9c2.6,1.9,4.5,1.9,7.1,0c18.2-13.7,39-19,61.3-19.2c8.1-0.1,16.2,1.2,24.3,1.7
		c1.4,0.1,2.9-0.8,4.4-1.3c-0.7-1.4-1.1-2.9-2-4.1c-0.8-1-2.1-1.7-3.2-2.4C1022.9,383.5,993.4,374.1,962.8,373.8z"/>
	<path class="st0" d="M1114.9,527.1c-0.8,38-14.6,70.9-37.9,100c-27.6,34.5-61.9,60.2-103.1,76.5c-7.7,3-15,3.8-23,0.6
		c-57.2-22.9-102.1-59.9-129.1-116c-16.9-35-19.8-71.9-5.5-108.6c12.3-31.4,36.7-48.1,70.3-50.9c17.7-1.5,34.8,1.2,50.7,9.8
		c8.1,4.4,14.3,10.6,19.4,18.3c2.8,4.4,5.9,4.5,8.5,0.3c11.6-18.5,29.8-25.4,50.1-28c22.9-2.9,44.5,1,63.5,14.9
		c19.2,14,29.2,33.8,33.2,56.7C1113.5,509.5,1113.9,518.3,1114.9,527.1z M1044.3,503.3c-5.2,0-10.3-0.1-15.5,0
		c-17.9,0.4-32.4,12.1-36.2,29.5c-0.9,4-0.7,8.3-0.9,12.4c-0.5,11,0.4,22.2-1.5,32.8c-3.5,19.2-14.4,35.3-25.7,50.8
		c-2.5,3.5-5.3,3.4-7.9-0.6c-5.9-9-11.9-18.1-17-27.6c-6.7-12.3-10-25.6-9.4-39.8c0.3-8,0.3-16-0.2-24
		c-1.1-16.6-14.5-31.2-31.1-32.8c-12.7-1.2-25.6-0.6-38.4-0.8c-3.5,0-5,2-5,5.4c0,5.7-0.1,11.3,0,17c0.4,26.3,22,43.3,47.7,37.4
		c5-1.2,6.9,0.2,7,5.4c0.1,10.8,2.7,21.1,6.7,31c9.2,22.7,23,42.3,39.6,60.1c4.2,4.4,5.6,4.4,9.6,0c12.1-13.4,22.7-27.9,31.3-43.8
		c7.9-14.4,14.2-29.4,14.8-46.2c0.2-6.8,1.4-7.8,8.2-6.2c21.9,5.1,43.2-9.3,45.8-31.7c0.9-7.7,0.5-15.6,0.7-23.4
		c0.1-3.5-1.9-5.2-5.3-5.2C1055.7,503.3,1050,503.4,1044.3,503.3z"/>
	<g id="XMLID_1_">
		<g>
			<path class="st1" d="M1052.6,404.5c0.9,1.2,1.4,2.7,2,4.1c-1.5,0.5-3,1.4-4.4,1.3c-8.1-0.5-16.2-1.8-24.3-1.7
				c-22.3,0.2-43.2,5.5-61.3,19.1c-2.6,1.9-4.5,1.9-7.1,0c-25.1-18.3-53.4-21.7-83.2-17.9c-0.7,0.1-1.3,0.5-1.9,0.4
				c-1.7-0.3-3.3-0.9-4.9-1.3c0.8-1.5,1.2-3.5,2.4-4.3c7.5-4.9,14.9-10.1,22.9-14.2c21.4-10.9,44.3-16.1,70.1-16.3
				c30.7,0.3,60.2,9.7,86.7,28.3C1050.6,402.9,1051.8,403.5,1052.6,404.5z"/>
		</g>
		<g>
			<path class="st2" d="M962.8,373.8c30.7,0.3,60.2,9.7,86.7,28.3c1.1,0.8,2.4,1.4,3.1,2.4c0.9,1.2,1.4,2.7,2,4.1
				c-1.5,0.5-3,1.4-4.4,1.3c-8.1-0.5-16.2-1.8-24.3-1.7c-22.3,0.2-43.2,5.5-61.3,19.1c-2.6,1.9-4.5,1.9-7.1,0
				c-25.1-18.3-53.4-21.7-83.2-17.9c-0.7,0.1-1.3,0.5-1.9,0.4c-1.7-0.3-3.3-0.9-4.9-1.3c0.8-1.5,1.2-3.5,2.4-4.3
				c7.5-4.9,14.9-10.1,22.9-14.2C914.1,379.2,937,374,962.8,373.8z"/>
		</g>
	</g>
	<path d="M1044.3,503.3c5.7,0,11.3,0,17,0c3.4,0,5.4,1.7,5.3,5.2c-0.1,7.8,0.2,15.7-0.7,23.4c-2.6,22.3-23.8,36.8-45.8,31.7
		c-6.8-1.6-8-0.7-8.2,6.2c-0.6,16.8-6.8,31.8-14.8,46.2c-8.7,15.8-19.2,30.4-31.3,43.8c-4,4.5-5.4,4.5-9.6,0
		c-16.6-17.8-30.5-37.4-39.6-60.1c-4-10-6.6-20.2-6.7-31c0-5.2-2-6.5-7-5.4c-25.7,5.9-47.3-11-47.7-37.4c-0.1-5.7,0-11.3,0-17
		c0-3.4,1.5-5.5,5-5.4c12.8,0.1,25.7-0.4,38.4,0.8c16.6,1.6,30,16.1,31.1,32.8c0.5,8,0.6,16,0.2,24c-0.6,14.2,2.7,27.5,9.4,39.8
		c5.2,9.5,11.1,18.5,17,27.6c2.6,4,5.4,4.1,7.9,0.6c11.3-15.6,22.1-31.6,25.7-50.8c2-10.7,1.1-21.9,1.5-32.8c0.2-4.2,0-8.4,0.9-12.4
		c3.8-17.3,18.3-29,36.2-29.5C1034,503.2,1039.2,503.3,1044.3,503.3z"/>
</g>
<path class="st3" d="M898.9,536.1"/>
</svg>
